<svg width="16" height="16" viewBox="0 0 16 16" fill="none" xmlns="http://www.w3.org/2000/svg">
<g clip-path="url(#clip0_1429_88)">
<path d="M7.23424 8.08053C6.727 8.08067 6.22758 7.95551 5.78036 7.71617C5.33313 7.47683 4.95196 7.13072 4.6707 6.7086C4.38944 6.28648 4.2168 5.80142 4.16814 5.29652C4.11947 4.79162 4.19628 4.28252 4.39174 3.81445C4.41235 3.76478 4.45186 3.72533 4.50156 3.70478C4.55127 3.68423 4.6071 3.68427 4.65677 3.70489C4.70644 3.72551 4.74589 3.76501 4.76644 3.81472C4.78699 3.86442 4.78695 3.92025 4.76633 3.96993C4.61348 4.33523 4.54361 4.72992 4.56178 5.1255C4.57996 5.52108 4.68571 5.9077 4.87141 6.25746C5.05711 6.60722 5.31813 6.9114 5.63563 7.14805C5.95314 7.3847 6.31922 7.54793 6.70746 7.62595C7.09569 7.70398 7.49641 7.69485 7.88069 7.59924C8.26498 7.50362 8.62324 7.3239 8.92965 7.07304C9.23606 6.82218 9.48296 6.50644 9.65255 6.14859C9.82213 5.79074 9.91018 5.39971 9.91032 5.00371C9.91032 4.92121 9.91194 4.84155 9.91357 4.76047C9.916 4.63459 9.91863 4.51033 9.91357 4.3804C9.91266 4.35378 9.91701 4.32724 9.92636 4.3023C9.93571 4.27736 9.94988 4.25451 9.96806 4.23505C9.98624 4.21558 10.0081 4.19989 10.0323 4.18887C10.0566 4.17785 10.0828 4.17171 10.1094 4.1708C10.136 4.1699 10.1625 4.17425 10.1875 4.1836C10.2124 4.19295 10.2353 4.20712 10.2547 4.2253C10.2742 4.24348 10.2899 4.26532 10.3009 4.28957C10.3119 4.31381 10.3181 4.34 10.319 4.36661C10.3238 4.50384 10.3212 4.6354 10.319 4.76857C10.3173 4.8458 10.3157 4.92364 10.3157 5.00351C10.3143 5.81991 9.98901 6.6024 9.41131 7.17927C8.8336 7.75614 8.05065 8.08027 7.23424 8.08053Z" fill="white"/>
<path d="M6.10723 1.18223C6.06165 1.18246 6.01732 1.16732 5.98141 1.13926C5.94549 1.11119 5.92008 1.07184 5.90928 1.02756C5.89848 0.983277 5.90291 0.936647 5.92188 0.895198C5.94084 0.853748 5.97322 0.8199 6.01379 0.799118C6.20134 0.702284 6.39719 0.622438 6.59899 0.560537C6.64998 0.546526 6.70442 0.552994 6.75071 0.578562C6.797 0.60413 6.83146 0.646774 6.84675 0.697395C6.86203 0.748016 6.85693 0.802607 6.83254 0.849521C6.80814 0.896435 6.76637 0.931957 6.71615 0.94851C6.53797 1.00345 6.36505 1.07421 6.19946 1.15993C6.17093 1.1746 6.13931 1.18224 6.10723 1.18223Z" fill="white"/>
<path d="M10.1165 4.57592C10.0761 4.57589 10.0366 4.56377 10.0031 4.54112C9.96961 4.51848 9.94367 4.48634 9.92859 4.44883C9.92372 4.43707 9.47251 3.33032 8.81757 3.01592L8.77197 3.05018C8.36189 3.35093 7.92217 3.60902 7.45967 3.82045C7.27248 3.90571 7.08078 3.98069 6.88541 4.04505C6.41037 4.21122 5.90869 4.28812 5.40568 4.27187C5.09708 4.25784 4.79282 4.19362 4.50487 4.08174C3.83048 3.81822 3.27102 3.28532 2.84271 2.50065C2.82332 2.46513 2.81501 2.42461 2.81885 2.38431C2.82269 2.34402 2.8385 2.3058 2.86425 2.27457C2.89001 2.24335 2.92452 2.22054 2.96334 2.20911C3.00217 2.19767 3.04353 2.19811 3.0821 2.21038C3.37582 2.27527 3.681 2.26678 3.97065 2.18568C4.26031 2.10458 4.52553 1.95336 4.74284 1.74538C4.76284 1.72711 4.78629 1.71303 4.81182 1.70397C4.83734 1.69491 4.86442 1.69106 4.89146 1.69264C4.9185 1.69423 4.94495 1.70122 4.96924 1.7132C4.99354 1.72517 5.01518 1.7419 5.03291 1.76238C5.05063 1.78287 5.06406 1.8067 5.07242 1.83246C5.08078 1.85823 5.08388 1.8854 5.08156 1.91239C5.07924 1.93938 5.07153 1.96562 5.05889 1.98958C5.04625 2.01354 5.02894 2.03472 5.00798 2.05187C4.57269 2.4488 4.00319 2.66608 3.41413 2.65998C3.71089 3.12617 4.14302 3.49055 4.65264 3.7043C4.89994 3.79983 5.16111 3.85459 5.42595 3.86647C5.87928 3.87984 6.33119 3.80969 6.75913 3.65951C6.9405 3.59959 7.11847 3.52982 7.29224 3.45052C7.72826 3.25037 8.14311 3.00699 8.53055 2.72403C8.61285 2.66322 8.65987 2.62592 8.66109 2.62471C8.68777 2.60366 8.71932 2.58966 8.75282 2.58399C8.78633 2.57833 8.82073 2.58117 8.85285 2.59228C9.42143 2.78849 9.85055 3.41626 10.0893 3.85309C10.35 3.04552 10.3486 2.44633 10.0812 2.10619C9.73257 1.66288 9.01298 1.7616 9.0069 1.7616C8.97025 1.76696 8.93284 1.76224 8.89866 1.74796C8.86449 1.73367 8.83485 1.71036 8.81291 1.68052C8.61926 1.39453 8.35646 1.16213 8.04893 1.00491C8.02489 0.993465 8.00334 0.977396 7.98551 0.957623C7.96769 0.937849 7.95393 0.914758 7.94503 0.889667C7.93612 0.864576 7.93225 0.837978 7.93363 0.81139C7.935 0.784802 7.9416 0.758746 7.95305 0.734709C7.96449 0.710671 7.98056 0.689124 8.00034 0.671297C8.02011 0.65347 8.0432 0.639712 8.06829 0.630809C8.09338 0.621906 8.11998 0.618032 8.14657 0.619408C8.17316 0.620784 8.19921 0.627384 8.22325 0.63883C8.55796 0.805819 8.84865 1.04928 9.07176 1.34951C9.34663 1.33491 10.0054 1.35538 10.3987 1.85342C10.8158 2.38045 10.7838 3.2541 10.3046 4.44802C10.2895 4.48556 10.2635 4.51772 10.23 4.54037C10.1965 4.56302 10.157 4.57512 10.1165 4.57511V4.57592Z" fill="white"/>
<path d="M11.8486 9.8056C11.8068 9.80563 11.7661 9.79266 11.732 9.76851C11.6228 9.69181 11.5026 9.63208 11.3755 9.59134L8.49853 8.65891C8.47205 8.6517 8.44731 8.6392 8.42581 8.62214C8.40431 8.60509 8.38649 8.58385 8.37344 8.55971C8.36039 8.53557 8.35238 8.50903 8.34989 8.4817C8.34741 8.45437 8.35049 8.42682 8.35897 8.40072C8.36745 8.37461 8.38113 8.35051 8.3992 8.32985C8.41727 8.3092 8.43935 8.29243 8.46409 8.28056C8.48884 8.26869 8.51573 8.26197 8.54315 8.2608C8.57057 8.25964 8.59794 8.26405 8.6236 8.27378L11.5006 9.20621C11.6663 9.25956 11.8231 9.3376 11.9656 9.4377C12.0008 9.46249 12.0273 9.49788 12.041 9.53872C12.0548 9.57957 12.0552 9.62374 12.0422 9.66483C12.0291 9.70591 12.0033 9.74177 11.9685 9.7672C11.9337 9.79262 11.8917 9.80629 11.8486 9.80621V9.8056Z" fill="white"/>
<path d="M10.0859 13.8683H1.74268C1.68892 13.8683 1.63737 13.8469 1.59935 13.8089C1.56134 13.7709 1.53998 13.7194 1.53998 13.6656V10.9038C1.53927 10.526 1.65867 10.1579 1.88094 9.85244C2.1032 9.54703 2.41682 9.32019 2.77647 9.20471L5.65302 8.27228C5.67868 8.26256 5.70605 8.25814 5.73347 8.25931C5.76089 8.26047 5.78778 8.2672 5.81253 8.27906C5.83727 8.29093 5.85935 8.3077 5.87742 8.32836C5.89548 8.34901 5.90917 8.37312 5.91765 8.39922C5.92612 8.42532 5.92921 8.45287 5.92672 8.4802C5.92424 8.50753 5.91623 8.53407 5.90318 8.55821C5.89013 8.58236 5.87231 8.6036 5.85081 8.62065C5.82931 8.6377 5.80457 8.65021 5.77809 8.65742L2.90154 9.58985C2.62336 9.67906 2.38079 9.85446 2.2089 10.0907C2.03701 10.3269 1.94472 10.6116 1.94539 10.9038V13.4629H10.0859C10.1397 13.4629 10.1912 13.4842 10.2293 13.5223C10.2673 13.5603 10.2886 13.6118 10.2886 13.6656C10.2886 13.7194 10.2673 13.7709 10.2293 13.8089C10.1912 13.8469 10.1397 13.8683 10.0859 13.8683Z" fill="white"/>
<path d="M4.2154 13.868H12.5586C12.6124 13.868 12.664 13.8466 12.702 13.8086C12.74 13.7706 12.7613 13.719 12.7613 13.6653V10.9034C12.7621 10.5257 12.6427 10.1575 12.4204 9.85211C12.1981 9.54669 11.8845 9.31985 11.5249 9.20438L8.64831 8.27194C8.62265 8.26222 8.59528 8.25781 8.56786 8.25897C8.54044 8.26014 8.51355 8.26686 8.4888 8.27873C8.46406 8.2906 8.44199 8.30737 8.42392 8.32802C8.40585 8.34868 8.39216 8.37278 8.38368 8.39888C8.37521 8.42499 8.37212 8.45254 8.37461 8.47987C8.37709 8.5072 8.3851 8.53374 8.39815 8.55788C8.4112 8.58202 8.42902 8.60326 8.45052 8.62031C8.47202 8.63736 8.49676 8.64987 8.52324 8.65708L11.3998 9.58951C11.678 9.67873 11.9205 9.85413 12.0924 10.0903C12.2643 10.3265 12.3566 10.6113 12.3559 10.9034V13.4626H4.2154C4.16164 13.4626 4.11009 13.4839 4.07207 13.5219C4.03406 13.5599 4.0127 13.6115 4.0127 13.6653C4.0127 13.719 4.03406 13.7706 4.07207 13.8086C4.11009 13.8466 4.16164 13.868 4.2154 13.868Z" fill="white"/>
<path d="M8.31367 11.1415C8.28562 11.1415 8.25787 11.1357 8.23219 11.1243C8.20651 11.113 8.18345 11.0965 8.16448 11.0759L6.95455 9.75828C6.93571 9.73777 6.92129 9.71359 6.91221 9.68726C6.90312 9.66092 6.89956 9.633 6.90175 9.60523C6.90394 9.57746 6.91182 9.55044 6.92492 9.52586C6.93801 9.50127 6.95604 9.47965 6.97786 9.46234L8.43489 8.30693C8.45561 8.28926 8.47967 8.27595 8.50564 8.26778C8.53162 8.25962 8.55897 8.25677 8.58607 8.25941C8.61317 8.26205 8.63946 8.27012 8.66337 8.28314C8.68728 8.29616 8.70833 8.31386 8.72525 8.3352C8.74216 8.35653 8.75461 8.38105 8.76185 8.4073C8.76908 8.43355 8.77095 8.46099 8.76735 8.48798C8.76375 8.51496 8.75474 8.54095 8.74088 8.56438C8.72701 8.58781 8.70857 8.60821 8.68665 8.62436L7.4005 9.64497L8.27719 10.5989L9.38476 8.70565C9.41191 8.65922 9.45638 8.62549 9.50841 8.61186C9.56043 8.59823 9.61573 8.60583 9.66216 8.63298C9.70858 8.66013 9.74231 8.7046 9.75594 8.75663C9.76957 8.80865 9.76197 8.86395 9.73482 8.91038L8.48861 11.0418C8.4726 11.0692 8.45037 11.0925 8.42371 11.1097C8.39706 11.127 8.36673 11.1377 8.33516 11.1411C8.32801 11.1417 8.32084 11.1418 8.31367 11.1415Z" fill="white"/>
<path d="M5.89323 11.1417C5.88543 11.1417 5.87765 11.1412 5.86992 11.1403C5.8382 11.1366 5.80778 11.1256 5.78115 11.108C5.75452 11.0903 5.73243 11.0667 5.71667 11.0389L4.52073 8.91542C4.50678 8.89219 4.49764 8.8664 4.49383 8.83958C4.49003 8.81275 4.49163 8.78544 4.49856 8.75925C4.50549 8.73306 4.5176 8.70852 4.53418 8.68709C4.55075 8.66566 4.57145 8.64777 4.59506 8.63447C4.61867 8.62118 4.6447 8.61275 4.67162 8.60969C4.69854 8.60663 4.7258 8.60899 4.75178 8.61665C4.77777 8.6243 4.80196 8.63709 4.82293 8.65425C4.84389 8.67141 4.8612 8.6926 4.87384 8.71657L5.93235 10.596L6.80944 9.6417L5.58512 8.6219C5.56402 8.60509 5.54649 8.58423 5.53356 8.56055C5.52062 8.53687 5.51255 8.51085 5.5098 8.48401C5.50706 8.45717 5.5097 8.43005 5.51757 8.40425C5.52544 8.37844 5.53838 8.35447 5.55564 8.33373C5.5729 8.31299 5.59412 8.2959 5.61807 8.28347C5.64201 8.27104 5.6682 8.26352 5.69509 8.26134C5.72199 8.25917 5.74904 8.26238 5.77468 8.27079C5.80031 8.27921 5.82401 8.29266 5.84438 8.31035L7.23248 9.46575C7.25363 9.48327 7.27099 9.5049 7.28353 9.52932C7.29606 9.55375 7.3035 9.58047 7.30539 9.60786C7.30729 9.63525 7.3036 9.66274 7.29455 9.68866C7.2855 9.71459 7.27128 9.7384 7.25275 9.75866L6.04282 11.0762C6.02379 11.0969 6.00066 11.1134 5.97491 11.1247C5.94915 11.136 5.92134 11.1418 5.89323 11.1417Z" fill="white"/>
<path d="M11.7906 13.8681H4.27343C4.2043 13.8681 4.13799 13.8467 4.08911 13.8087C4.04022 13.7707 4.01276 13.7191 4.01276 13.6654V12.3291C4.01276 12.2754 4.04022 12.2238 4.08911 12.1858C4.13799 12.1478 4.2043 12.1264 4.27343 12.1264C4.34257 12.1264 4.40888 12.1478 4.45776 12.1858C4.50665 12.2238 4.53411 12.2754 4.53411 12.3291V13.4626H11.7906C11.8598 13.4626 11.9261 13.484 11.9749 13.522C12.0238 13.56 12.0513 13.6116 12.0513 13.6654C12.0513 13.7191 12.0238 13.7707 11.9749 13.8087C11.9261 13.8467 11.8598 13.8681 11.7906 13.8681Z" fill="white"/>
<path d="M2.71945 13.8683H10.2366C10.3058 13.8683 10.3721 13.8469 10.421 13.8089C10.4699 13.7709 10.4973 13.7194 10.4973 13.6656V12.3294C10.4973 12.2756 10.4699 12.2241 10.421 12.186C10.3721 12.148 10.3058 12.1267 10.2366 12.1267C10.1675 12.1267 10.1012 12.148 10.0523 12.186C10.0034 12.2241 9.97596 12.2756 9.97596 12.3294V13.4629H2.71945C2.65031 13.4629 2.58401 13.4842 2.53512 13.5223C2.48623 13.5603 2.45877 13.6118 2.45877 13.6656C2.45877 13.7194 2.48623 13.7709 2.53512 13.8089C2.58401 13.8469 2.65031 13.8683 2.71945 13.8683Z" fill="white"/>
<path d="M8.55958 8.66878C8.50582 8.66878 8.45426 8.64743 8.41624 8.60941C8.37823 8.5714 8.35687 8.51984 8.35687 8.46608V7.55513C8.35687 7.50137 8.37823 7.44982 8.41624 7.4118C8.45426 7.37379 8.50582 7.35243 8.55958 7.35243C8.61334 7.35243 8.66489 7.37379 8.70291 7.4118C8.74092 7.44982 8.76228 7.50137 8.76228 7.55513V8.4673C8.76196 8.52085 8.74046 8.57209 8.70248 8.60984C8.6645 8.64759 8.61313 8.66878 8.55958 8.66878Z" fill="white"/>
<path d="M5.7154 8.66932C5.66164 8.66932 5.61008 8.64796 5.57207 8.60995C5.53405 8.57193 5.5127 8.52037 5.5127 8.46661V7.44439C5.5127 7.39063 5.53405 7.33907 5.57207 7.30105C5.61008 7.26304 5.66164 7.24168 5.7154 7.24168C5.76916 7.24168 5.82071 7.26304 5.85873 7.30105C5.89674 7.33907 5.9181 7.39063 5.9181 7.44439V8.46661C5.9181 8.52037 5.89674 8.57193 5.85873 8.60995C5.82071 8.64796 5.76916 8.66932 5.7154 8.66932Z" fill="white"/>
</g>
<defs>
<clipPath id="clip0_1429_88">
<rect width="15" height="15" fill="white" transform="translate(0.5 0.0351562)"/>
</clipPath>
</defs>
</svg>
