<svg width="24" height="25" viewBox="0 0 24 25" fill="none" xmlns="http://www.w3.org/2000/svg">
<g clip-path="url(#clip0_1_1385)">
<path d="M0.972922 10.0696C0.905153 10.0696 0.839105 10.0483 0.784057 10.0088C0.729008 9.96923 0.687724 9.91345 0.666004 9.84926C0.644284 9.78506 0.643218 9.71568 0.662957 9.65085C0.682696 9.58601 0.722248 9.52899 0.776057 9.4878L4.34362 6.7599C4.41209 6.70951 4.4976 6.68801 4.58176 6.70004C4.66591 6.71207 4.74198 6.75665 4.79359 6.82421C4.8452 6.89176 4.86822 6.97687 4.85771 7.06123C4.84719 7.14559 4.80397 7.22244 4.73735 7.27525L1.16979 10.0028C1.11334 10.0462 1.04412 10.0697 0.972922 10.0696Z" fill="white"/>
<path d="M23.027 23.6914H16.0346C15.9485 23.6914 15.8661 23.6572 15.8052 23.5964C15.7444 23.5355 15.7102 23.453 15.7102 23.367C15.7102 23.281 15.7444 23.1985 15.8052 23.1377C15.8661 23.0769 15.9485 23.0427 16.0346 23.0427H22.7027V9.74541C22.7027 9.65939 22.7368 9.5769 22.7977 9.51607C22.8585 9.45525 22.941 9.42108 23.027 9.42108C23.113 9.42108 23.1955 9.45525 23.2563 9.51607C23.3171 9.5769 23.3513 9.65939 23.3513 9.74541V23.367C23.3513 23.453 23.3171 23.5355 23.2563 23.5964C23.1955 23.6572 23.113 23.6914 23.027 23.6914Z" fill="white"/>
<path d="M10.5307 23.6913H9.58696C9.50094 23.6913 9.41845 23.6571 9.35763 23.5963C9.2968 23.5354 9.26263 23.4529 9.26263 23.3669C9.26263 23.2809 9.2968 23.1984 9.35763 23.1376C9.41845 23.0768 9.50094 23.0426 9.58696 23.0426H10.5307C10.6168 23.0426 10.6992 23.0768 10.7601 23.1376C10.8209 23.1984 10.8551 23.2809 10.8551 23.3669C10.8551 23.4529 10.8209 23.5354 10.7601 23.5963C10.6992 23.6571 10.6168 23.6913 10.5307 23.6913Z" fill="white"/>
<path d="M7.31673 23.6914H0.972945C0.886929 23.6914 0.804436 23.6572 0.743613 23.5964C0.68279 23.5355 0.648621 23.453 0.648621 23.367V9.74541C0.648621 9.65939 0.68279 9.5769 0.743613 9.51607C0.804436 9.45525 0.886929 9.42108 0.972945 9.42108C1.05896 9.42108 1.14145 9.45525 1.20228 9.51607C1.2631 9.5769 1.29727 9.65939 1.29727 9.74541V23.0427H7.31673C7.40275 23.0427 7.48524 23.0769 7.54606 23.1377C7.60688 23.1985 7.64105 23.281 7.64105 23.367C7.64105 23.453 7.60688 23.5355 7.54606 23.5964C7.48524 23.6572 7.40275 23.6914 7.31673 23.6914Z" fill="white"/>
<path d="M13.7643 23.6913H12.8011C12.7151 23.6913 12.6326 23.6571 12.5718 23.5963C12.5109 23.5354 12.4768 23.4529 12.4768 23.3669C12.4768 23.2809 12.5109 23.1984 12.5718 23.1376C12.6326 23.0768 12.7151 23.0426 12.8011 23.0426H13.7643C13.8503 23.0426 13.9328 23.0768 13.9937 23.1376C14.0545 23.1984 14.0887 23.2809 14.0887 23.3669C14.0887 23.4529 14.0545 23.5354 13.9937 23.5963C13.9328 23.6571 13.8503 23.6913 13.7643 23.6913Z" fill="white"/>
<path d="M14.8083 3.7841C14.7373 3.78405 14.6682 3.7607 14.6118 3.71761L12 1.72107L9.38822 3.71761C9.31988 3.76987 9.23358 3.79283 9.14831 3.78146C9.06303 3.77009 8.98577 3.7253 8.93352 3.65696C8.88126 3.58862 8.8583 3.50232 8.86967 3.41705C8.88104 3.33178 8.92583 3.25451 8.99417 3.20226L11.8031 1.05523C11.8597 1.01204 11.9289 0.988647 12 0.988647C12.0711 0.988647 12.1403 1.01204 12.1969 1.05523L15.0058 3.20226C15.0597 3.24349 15.0993 3.30057 15.119 3.36546C15.1387 3.43036 15.1376 3.4998 15.1158 3.56403C15.094 3.62825 15.0526 3.68403 14.9974 3.7235C14.9423 3.76298 14.8761 3.78417 14.8083 3.7841Z" fill="white"/>
<path d="M23.027 10.0696C22.9558 10.0696 22.8866 10.0461 22.8302 10.0027L19.2626 7.27518C19.2007 7.22092 19.1617 7.14514 19.1536 7.0632C19.1455 6.98126 19.1688 6.8993 19.2189 6.83395C19.269 6.76859 19.3421 6.72474 19.4233 6.71127C19.5045 6.69781 19.5878 6.71575 19.6563 6.76145L23.2239 9.48934C23.2771 9.53073 23.316 9.58764 23.3353 9.65217C23.3547 9.7167 23.3534 9.78565 23.3318 9.84945C23.3101 9.91324 23.2692 9.96871 23.2146 10.0082C23.1599 10.0476 23.0944 10.0691 23.027 10.0696Z" fill="white"/>
<path d="M12 17.8992C10.9452 17.9005 9.92294 17.5346 9.10861 16.8643L0.766662 9.99446C0.700257 9.93975 0.658305 9.86091 0.650033 9.77527C0.641761 9.68963 0.667848 9.60422 0.722554 9.53781C0.77726 9.47141 0.856105 9.42945 0.941743 9.42118C1.02738 9.41291 1.1128 9.439 1.1792 9.4937L9.52115 16.3635C10.2199 16.9371 11.0959 17.2506 12 17.2506C12.904 17.2506 13.78 16.9371 14.4788 16.3635L22.8207 9.4937C22.8536 9.46662 22.8915 9.44627 22.9322 9.43383C22.973 9.42138 23.0158 9.41709 23.0582 9.42118C23.1006 9.42528 23.1418 9.43769 23.1794 9.4577C23.217 9.47771 23.2503 9.50493 23.2774 9.53781C23.3045 9.57069 23.3248 9.60858 23.3372 9.64933C23.3497 9.69007 23.354 9.73287 23.3499 9.77527C23.3458 9.81767 23.3334 9.85886 23.3134 9.89646C23.2934 9.93407 23.2661 9.96737 23.2333 9.99446L14.8913 16.8643C14.077 17.5346 13.0547 17.9005 12 17.8992Z" fill="white"/>
<path d="M23.027 23.6912C22.9517 23.6913 22.8788 23.6651 22.8207 23.6173L14.5504 16.8065C14.5176 16.7794 14.4903 16.7461 14.4703 16.7085C14.4503 16.6709 14.4379 16.6297 14.4338 16.5873C14.4297 16.5449 14.434 16.5021 14.4465 16.4613C14.4589 16.4206 14.4792 16.3827 14.5063 16.3498C14.5334 16.3169 14.5667 16.2897 14.6043 16.2697C14.6419 16.2497 14.6831 16.2373 14.7255 16.2332C14.7679 16.2291 14.8107 16.2334 14.8515 16.2458C14.8922 16.2583 14.9301 16.2786 14.963 16.3057L23.2332 23.1165C23.2848 23.159 23.322 23.2164 23.3398 23.2808C23.3575 23.3452 23.3549 23.4136 23.3324 23.4765C23.3098 23.5394 23.2683 23.5938 23.2137 23.6322C23.159 23.6706 23.0938 23.6913 23.027 23.6912Z" fill="white"/>
<path d="M0.972976 23.6912C0.90615 23.6913 0.840947 23.6706 0.786285 23.6322C0.731623 23.5938 0.69017 23.5394 0.667595 23.4765C0.645021 23.4136 0.642426 23.3452 0.660166 23.2808C0.677907 23.2164 0.715116 23.159 0.766706 23.1165L9.03698 16.3057C9.10338 16.251 9.1888 16.2249 9.27444 16.2332C9.36007 16.2415 9.43892 16.2834 9.49362 16.3498C9.54833 16.4162 9.57442 16.5016 9.56615 16.5873C9.55787 16.6729 9.51592 16.7518 9.44952 16.8065L1.17925 23.6173C1.12115 23.6651 1.04823 23.6913 0.972976 23.6912Z" fill="white"/>
<path d="M19.4595 13.0079C19.3735 13.0079 19.291 12.9737 19.2302 12.9129C19.1693 12.8521 19.1352 12.7696 19.1352 12.6836V3.78573H4.8649V12.6836C4.8649 12.7696 4.83073 12.8521 4.7699 12.9129C4.70908 12.9737 4.62659 13.0079 4.54057 13.0079C4.45456 13.0079 4.37206 12.9737 4.31124 12.9129C4.25042 12.8521 4.21625 12.7696 4.21625 12.6836V3.46141C4.21625 3.37539 4.25042 3.2929 4.31124 3.23208C4.37206 3.17125 4.45456 3.13708 4.54057 3.13708H19.4595C19.5455 3.13708 19.628 3.17125 19.6888 3.23208C19.7496 3.2929 19.7838 3.37539 19.7838 3.46141V12.6836C19.7838 12.7696 19.7496 12.8521 19.6888 12.9129C19.628 12.9737 19.5455 13.0079 19.4595 13.0079Z" fill="white"/>
<path d="M12 9.40402C11.6935 9.40402 11.394 9.31316 11.1392 9.14292C10.8844 8.97268 10.6859 8.73071 10.5686 8.44761C10.4513 8.16451 10.4206 7.853 10.4804 7.55247C10.5402 7.25193 10.6878 6.97587 10.9044 6.7592C11.1211 6.54253 11.3972 6.39497 11.6977 6.33519C11.9982 6.27541 12.3097 6.30609 12.5928 6.42335C12.8759 6.54062 13.1179 6.73919 13.2881 6.99398C13.4584 7.24876 13.5493 7.5483 13.5493 7.85472C13.5493 7.94074 13.5151 8.02323 13.4543 8.08405C13.3934 8.14488 13.3109 8.17905 13.2249 8.17905C13.1389 8.17905 13.0564 8.14488 12.9956 8.08405C12.9348 8.02323 12.9006 7.94074 12.9006 7.85472C12.9006 7.67659 12.8478 7.50246 12.7488 7.35435C12.6499 7.20623 12.5092 7.0908 12.3446 7.02263C12.18 6.95446 11.999 6.93662 11.8242 6.97138C11.6495 7.00613 11.4891 7.09191 11.3631 7.21786C11.2371 7.34382 11.1514 7.5043 11.1166 7.67901C11.0819 7.85372 11.0997 8.03481 11.1679 8.19938C11.236 8.36396 11.3515 8.50462 11.4996 8.60358C11.6477 8.70255 11.8218 8.75537 12 8.75537C12.086 8.75537 12.1685 8.78954 12.2293 8.85036C12.2901 8.91119 12.3243 8.99368 12.3243 9.0797C12.3243 9.16571 12.2901 9.24821 12.2293 9.30903C12.1685 9.36985 12.086 9.40402 12 9.40402Z" fill="white"/>
<path d="M12 11.8532C11.5892 11.8528 11.1954 11.6894 10.9049 11.399C10.6144 11.1085 10.4511 10.7147 10.4507 10.3039C10.4507 10.2179 10.4848 10.1354 10.5456 10.0746C10.6065 10.0138 10.689 9.97959 10.775 9.97959C10.861 9.97959 10.9435 10.0138 11.0043 10.0746C11.0651 10.1354 11.0993 10.2179 11.0993 10.3039C11.0992 10.4821 11.1519 10.6563 11.2508 10.8045C11.3497 10.9527 11.4903 11.0682 11.6548 11.1365C11.8194 11.2047 12.0005 11.2227 12.1753 11.188C12.35 11.1533 12.5106 11.0676 12.6366 10.9416C12.7626 10.8157 12.8484 10.6552 12.8833 10.4805C12.9181 10.3058 12.9003 10.1247 12.8321 9.96005C12.764 9.79544 12.6485 9.65474 12.5004 9.55575C12.3523 9.45675 12.1781 9.40392 12 9.40392C11.9139 9.40392 11.8314 9.36975 11.7706 9.30892C11.7098 9.2481 11.6756 9.16561 11.6756 9.07959C11.6756 8.99358 11.7098 8.91108 11.7706 8.85026C11.8314 8.78944 11.9139 8.75527 12 8.75527C12.206 8.75105 12.4109 8.788 12.6025 8.86395C12.7941 8.9399 12.9687 9.05332 13.1159 9.19757C13.2631 9.34182 13.3801 9.51401 13.46 9.70403C13.5398 9.89406 13.581 10.0981 13.581 10.3042C13.581 10.5104 13.5398 10.7144 13.46 10.9044C13.3801 11.0945 13.2631 11.2667 13.1159 11.4109C12.9687 11.5552 12.7941 11.6686 12.6025 11.7445C12.4109 11.8205 12.206 11.8574 12 11.8532Z" fill="white"/>
<path d="M12.0019 12.4752C11.9159 12.4752 11.8334 12.441 11.7726 12.3802C11.7118 12.3194 11.6776 12.2369 11.6776 12.1509V11.5314C11.6776 11.4454 11.7118 11.3629 11.7726 11.3021C11.8334 11.2413 11.9159 11.2071 12.0019 11.2071C12.088 11.2071 12.1705 11.2413 12.2313 11.3021C12.2921 11.3629 12.3263 11.4454 12.3263 11.5314V12.1509C12.3263 12.2369 12.2921 12.3194 12.2313 12.3802C12.1705 12.441 12.088 12.4752 12.0019 12.4752Z" fill="white"/>
<path d="M12.0019 6.95588C11.9159 6.95588 11.8334 6.92171 11.7726 6.86089C11.7118 6.80007 11.6776 6.71757 11.6776 6.63156V6.00853C11.6776 5.92251 11.7118 5.84002 11.7726 5.7792C11.8334 5.71837 11.9159 5.6842 12.0019 5.6842C12.088 5.6842 12.1705 5.71837 12.2313 5.7792C12.2921 5.84002 12.3263 5.92251 12.3263 6.00853V6.63156C12.3263 6.71757 12.2921 6.80007 12.2313 6.86089C12.1705 6.92171 12.088 6.95588 12.0019 6.95588Z" fill="white"/>
</g>
<defs>
<clipPath id="clip0_1_1385">
<rect width="24" height="24" fill="white" transform="translate(0 0.339844)"/>
</clipPath>
</defs>
</svg>
