<svg width="24" height="25" viewBox="0 0 24 25" fill="none" xmlns="http://www.w3.org/2000/svg">
<g clip-path="url(#clip0_1_1361)">
<path d="M12.7103 23.6975H11.7471C11.661 23.6975 11.5785 23.6633 11.5177 23.6025C11.4569 23.5417 11.4227 23.4592 11.4227 23.3732C11.4227 23.2871 11.4569 23.2046 11.5177 23.1438C11.5785 23.083 11.661 23.0488 11.7471 23.0488H12.7103C12.7963 23.0488 12.8788 23.083 12.9396 23.1438C13.0004 23.2046 13.0346 23.2871 13.0346 23.3732C13.0346 23.4592 13.0004 23.5417 12.9396 23.6025C12.8788 23.6633 12.7963 23.6975 12.7103 23.6975Z" fill="white"/>
<path d="M6.26596 23.6979H1.98487C1.80257 23.6977 1.62778 23.6252 1.49888 23.4963C1.36997 23.3674 1.29747 23.1927 1.2973 23.0103V4.92927C1.29747 4.74697 1.36997 4.57218 1.49888 4.44327C1.62778 4.31437 1.80257 4.24187 1.98487 4.2417H4.85839C4.9444 4.2417 5.0269 4.27587 5.08772 4.33669C5.14854 4.39751 5.18271 4.48001 5.18271 4.56602C5.18271 4.65204 5.14854 4.73453 5.08772 4.79536C5.0269 4.85618 4.9444 4.89035 4.85839 4.89035H1.98487C1.97975 4.8903 1.97467 4.89128 1.96993 4.89322C1.96518 4.89516 1.96088 4.89803 1.95725 4.90165C1.95363 4.90527 1.95077 4.90958 1.94883 4.91432C1.94689 4.91906 1.94591 4.92414 1.94595 4.92927V23.0103C1.94591 23.0155 1.94689 23.0206 1.94883 23.0253C1.95077 23.03 1.95363 23.0343 1.95725 23.038C1.96088 23.0416 1.96518 23.0445 1.96993 23.0464C1.97467 23.0483 1.97975 23.0493 1.98487 23.0493H6.26596C6.35197 23.0493 6.43447 23.0834 6.49529 23.1443C6.55611 23.2051 6.59028 23.2876 6.59028 23.3736C6.59028 23.4596 6.55611 23.5421 6.49529 23.6029C6.43447 23.6637 6.35197 23.6979 6.26596 23.6979Z" fill="white"/>
<path d="M9.47677 23.6975H8.53624C8.45022 23.6975 8.36773 23.6633 8.30691 23.6025C8.24608 23.5417 8.21191 23.4592 8.21191 23.3732C8.21191 23.2871 8.24608 23.2046 8.30691 23.1438C8.36773 23.083 8.45022 23.0488 8.53624 23.0488H9.47677C9.56279 23.0488 9.64528 23.083 9.70611 23.1438C9.76693 23.2046 9.8011 23.2871 9.8011 23.3732C9.8011 23.4592 9.76693 23.5417 9.70611 23.6025C9.64528 23.6633 9.56279 23.6975 9.47677 23.6975Z" fill="white"/>
<path d="M16.1773 23.6979H14.9805C14.8945 23.6979 14.812 23.6637 14.7512 23.6029C14.6904 23.5421 14.6562 23.4596 14.6562 23.3736C14.6562 23.2876 14.6904 23.2051 14.7512 23.1443C14.812 23.0834 14.8945 23.0493 14.9805 23.0493H16.1773C16.1824 23.0493 16.1875 23.0483 16.1922 23.0464C16.197 23.0445 16.2013 23.0416 16.2049 23.038C16.2085 23.0343 16.2114 23.03 16.2133 23.0253C16.2153 23.0206 16.2163 23.0155 16.2162 23.0103V4.92927C16.2163 4.92414 16.2153 4.91906 16.2133 4.91432C16.2114 4.90958 16.2085 4.90527 16.2049 4.90165C16.2013 4.89803 16.197 4.89516 16.1922 4.89322C16.1875 4.89128 16.1824 4.8903 16.1773 4.89035H13.3038C13.2178 4.89035 13.1353 4.85618 13.0745 4.79536C13.0136 4.73453 12.9795 4.65204 12.9795 4.56602C12.9795 4.48001 13.0136 4.39751 13.0745 4.33669C13.1353 4.27587 13.2178 4.2417 13.3038 4.2417H16.1773C16.3596 4.24187 16.5344 4.31437 16.6633 4.44327C16.7922 4.57218 16.8647 4.74697 16.8649 4.92927V23.0103C16.8647 23.1927 16.7922 23.3674 16.6633 23.4963C16.5344 23.6252 16.3596 23.6977 16.1773 23.6979Z" fill="white"/>
<path d="M13.3038 5.86155H4.85841C4.7724 5.86155 4.6899 5.82738 4.62908 5.76656C4.56826 5.70574 4.53409 5.62325 4.53409 5.53723V3.6075C4.53409 3.52148 4.56826 3.43899 4.62908 3.37817C4.6899 3.31735 4.7724 3.28318 4.85841 3.28318H6.61625C6.66036 2.65982 6.93911 2.07635 7.39633 1.65035C7.85354 1.22435 8.45523 0.987488 9.08014 0.987488C9.70506 0.987488 10.3067 1.22435 10.764 1.65035C11.2212 2.07635 11.4999 2.65982 11.544 3.28318H13.3038C13.3898 3.28318 13.4723 3.31735 13.5332 3.37817C13.594 3.43899 13.6281 3.52148 13.6281 3.6075V5.53723C13.6281 5.62325 13.594 5.70574 13.5332 5.76656C13.4723 5.82738 13.3898 5.86155 13.3038 5.86155ZM5.18274 5.2129H12.9795V3.93182H11.2249C11.1389 3.93182 11.0564 3.89765 10.9956 3.83683C10.9347 3.77601 10.9006 3.69352 10.9006 3.6075V3.45507C10.9006 2.97209 10.7087 2.50889 10.3672 2.16737C10.0257 1.82585 9.56247 1.63399 9.07949 1.63399C8.59651 1.63399 8.13331 1.82585 7.7918 2.16737C7.45028 2.50889 7.25841 2.97209 7.25841 3.45507V3.6075C7.25841 3.69352 7.22424 3.77601 7.16342 3.83683C7.1026 3.89765 7.0201 3.93182 6.93409 3.93182H5.18274V5.2129Z" fill="white"/>
<path d="M14.6066 9.91305H8.12013C8.03412 9.91305 7.95162 9.87888 7.8908 9.81806C7.82998 9.75723 7.79581 9.67474 7.79581 9.58873C7.79581 9.50271 7.82998 9.42022 7.8908 9.3594C7.95162 9.29857 8.03412 9.2644 8.12013 9.2644H14.6066C14.6926 9.2644 14.7751 9.29857 14.836 9.3594C14.8968 9.42022 14.931 9.50271 14.931 9.58873C14.931 9.67474 14.8968 9.75723 14.836 9.81806C14.7751 9.87888 14.6926 9.91305 14.6066 9.91305Z" fill="white"/>
<path d="M14.6066 13.3194H8.12013C8.03412 13.3194 7.95162 13.2853 7.8908 13.2244C7.82998 13.1636 7.79581 13.0811 7.79581 12.9951C7.79581 12.9091 7.82998 12.8266 7.8908 12.7658C7.95162 12.7049 8.03412 12.6708 8.12013 12.6708H14.6066C14.6926 12.6708 14.7751 12.7049 14.836 12.7658C14.8968 12.8266 14.931 12.9091 14.931 12.9951C14.931 13.0811 14.8968 13.1636 14.836 13.2244C14.7751 13.2853 14.6926 13.3194 14.6066 13.3194Z" fill="white"/>
<path d="M14.6066 16.7254H8.12013C8.03412 16.7254 7.95162 16.6913 7.8908 16.6304C7.82998 16.5696 7.79581 16.4871 7.79581 16.4011C7.79581 16.3151 7.82998 16.2326 7.8908 16.1718C7.95162 16.111 8.03412 16.0768 8.12013 16.0768H14.6066C14.6926 16.0768 14.7751 16.111 14.836 16.1718C14.8968 16.2326 14.931 16.3151 14.931 16.4011C14.931 16.4871 14.8968 16.5696 14.836 16.6304C14.7751 16.6913 14.6926 16.7254 14.6066 16.7254Z" fill="white"/>
<path d="M14.6066 20.1317H8.12013C8.03412 20.1317 7.95162 20.0976 7.8908 20.0368C7.82998 19.9759 7.79581 19.8934 7.79581 19.8074C7.79581 19.7214 7.82998 19.6389 7.8908 19.5781C7.95162 19.5173 8.03412 19.4831 8.12013 19.4831H14.6066C14.6926 19.4831 14.7751 19.5173 14.836 19.5781C14.8968 19.6389 14.931 19.7214 14.931 19.8074C14.931 19.8934 14.8968 19.9759 14.836 20.0368C14.7751 20.0976 14.6926 20.1317 14.6066 20.1317Z" fill="white"/>
<path d="M4.25549 10.8191C4.16949 10.8191 4.08701 10.7849 4.0262 10.724L3.32631 10.0241C3.29533 9.99423 3.27062 9.95844 3.25363 9.91887C3.23663 9.8793 3.22768 9.83675 3.22731 9.79368C3.22693 9.75062 3.23514 9.70791 3.25145 9.66805C3.26775 9.6282 3.29184 9.59198 3.32229 9.56153C3.35274 9.53108 3.38895 9.507 3.42881 9.49069C3.46867 9.47438 3.51137 9.46618 3.55444 9.46655C3.5975 9.46693 3.64006 9.47587 3.67963 9.49287C3.7192 9.50987 3.75498 9.53458 3.7849 9.56555L4.25549 10.0358L5.85117 8.44047C5.91234 8.38139 5.99426 8.3487 6.0793 8.34944C6.16433 8.35018 6.24568 8.38429 6.30581 8.44442C6.36594 8.50455 6.40005 8.5859 6.40079 8.67093C6.40153 8.75597 6.36884 8.8379 6.30976 8.89906L4.48479 10.724C4.42398 10.7849 4.3415 10.8191 4.25549 10.8191Z" fill="white"/>
<path d="M4.25547 14.3375C4.16946 14.3375 4.08698 14.3033 4.02617 14.2425L3.32628 13.5426C3.27175 13.4806 3.24289 13.4002 3.2456 13.3177C3.2483 13.2352 3.28235 13.1569 3.34082 13.0986C3.39929 13.0403 3.47777 13.0066 3.56028 13.0041C3.64279 13.0017 3.72311 13.0309 3.78488 13.0856L4.25547 13.5562L5.85115 11.9605C5.91232 11.9015 5.99424 11.8688 6.07928 11.8695C6.16432 11.8703 6.24566 11.9044 6.30579 11.9645C6.36593 12.0246 6.40004 12.106 6.40077 12.191C6.40151 12.276 6.36882 12.358 6.30975 12.4191L4.48477 14.2441C4.4237 14.3043 4.34125 14.3379 4.25547 14.3375Z" fill="white"/>
<path d="M4.25546 17.5321C4.21285 17.5322 4.17065 17.5239 4.13129 17.5076C4.09193 17.4912 4.0562 17.4673 4.02616 17.4371L3.32627 16.7372C3.26719 16.676 3.2345 16.5941 3.23524 16.509C3.23598 16.424 3.27009 16.3427 3.33022 16.2825C3.39035 16.2224 3.4717 16.1883 3.55674 16.1876C3.64177 16.1868 3.7237 16.2195 3.78486 16.2786L4.25546 16.7508L5.85113 15.1551C5.9123 15.0961 5.99423 15.0634 6.07926 15.0641C6.1643 15.0648 6.24564 15.0989 6.30577 15.1591C6.36591 15.2192 6.40002 15.3006 6.40075 15.3856C6.40149 15.4706 6.3688 15.5526 6.30973 15.6137L4.48476 17.4387C4.45459 17.4686 4.4188 17.4923 4.37944 17.5083C4.34009 17.5243 4.29795 17.5324 4.25546 17.5321Z" fill="white"/>
<path d="M4.25546 21.0504C4.21285 21.0505 4.17065 21.0421 4.13129 21.0258C4.09193 21.0095 4.0562 20.9856 4.02616 20.9553L3.32627 20.2558C3.26719 20.1946 3.2345 20.1127 3.23524 20.0276C3.23598 19.9426 3.27009 19.8613 3.33022 19.8011C3.39035 19.741 3.4717 19.7069 3.55674 19.7061C3.64177 19.7054 3.7237 19.7381 3.78486 19.7972L4.25546 20.2674L5.85113 18.6721C5.9123 18.613 5.99423 18.5803 6.07926 18.5811C6.1643 18.5818 6.24564 18.6159 6.30577 18.676C6.36591 18.7362 6.40002 18.8175 6.40075 18.9026C6.40149 18.9876 6.3688 19.0695 6.30973 19.1307L4.48476 20.9553C4.45472 20.9856 4.41899 21.0095 4.37963 21.0258C4.34027 21.0421 4.29806 21.0505 4.25546 21.0504Z" fill="white"/>
<path d="M22.3784 20.1531H18.7972C18.7112 20.1531 18.6287 20.1189 18.5679 20.0581C18.507 19.9973 18.4729 19.9148 18.4729 19.8288V8.20177C18.473 8.01052 18.5491 7.82715 18.6843 7.69192C18.8196 7.55669 19.0029 7.48064 19.1942 7.48047H21.9814C22.1727 7.48064 22.356 7.55669 22.4913 7.69192C22.6265 7.82715 22.7025 8.01052 22.7027 8.20177V19.8288C22.7027 19.9148 22.6685 19.9973 22.6077 20.0581C22.5469 20.1189 22.4644 20.1531 22.3784 20.1531ZM19.1215 19.5045H22.0541V8.20177C22.0541 8.1825 22.0464 8.16402 22.0328 8.1504C22.0192 8.13677 22.0007 8.12912 21.9814 8.12912H19.1942C19.1749 8.12912 19.1564 8.13677 19.1428 8.1504C19.1292 8.16402 19.1215 8.1825 19.1215 8.20177V19.5045Z" fill="white"/>
<path d="M20.5878 23.6994C20.5278 23.6994 20.469 23.6828 20.418 23.6513C20.3669 23.6199 20.3255 23.5749 20.2985 23.5214L18.5076 19.9752C18.4826 19.9258 18.4707 19.8707 18.473 19.8154C18.4753 19.76 18.4918 19.7062 18.5208 19.659C18.5499 19.6118 18.5905 19.5728 18.6389 19.5458C18.6873 19.5188 18.7418 19.5046 18.7972 19.5046H22.3784C22.4338 19.5046 22.4883 19.5188 22.5367 19.5458C22.5851 19.5728 22.6257 19.6118 22.6548 19.659C22.6838 19.7062 22.7003 19.76 22.7026 19.8154C22.7049 19.8707 22.693 19.9258 22.668 19.9752L20.8774 23.5214C20.8503 23.575 20.8089 23.62 20.7578 23.6514C20.7067 23.6828 20.6478 23.6995 20.5878 23.6994ZM19.3229 20.1533L20.5878 22.6558L21.8527 20.1533H19.3229Z" fill="white"/>
<path d="M22.3784 11.44H18.7972C18.7112 11.44 18.6287 11.4059 18.5679 11.345C18.507 11.2842 18.4729 11.2017 18.4729 11.1157C18.4729 11.0297 18.507 10.9472 18.5679 10.8864C18.6287 10.8256 18.7112 10.7914 18.7972 10.7914H22.3784C22.4644 10.7914 22.5469 10.8256 22.6077 10.8864C22.6685 10.9472 22.7027 11.0297 22.7027 11.1157C22.7027 11.2017 22.6685 11.2842 22.6077 11.345C22.5469 11.4059 22.4644 11.44 22.3784 11.44Z" fill="white"/>
<path d="M20.5878 20.153C20.5018 20.153 20.4193 20.1188 20.3585 20.058C20.2976 19.9972 20.2635 19.9147 20.2635 19.8287V11.1157C20.2635 11.0297 20.2976 10.9472 20.3585 10.8864C20.4193 10.8256 20.5018 10.7914 20.5878 10.7914C20.6738 10.7914 20.7563 10.8256 20.8171 10.8864C20.8779 10.9472 20.9121 11.0297 20.9121 11.1157V19.8287C20.9121 19.9147 20.8779 19.9972 20.8171 20.058C20.7563 20.1188 20.6738 20.153 20.5878 20.153Z" fill="white"/>
</g>
<defs>
<clipPath id="clip0_1_1361">
<rect width="24" height="24" fill="white" transform="translate(0 0.339844)"/>
</clipPath>
</defs>
</svg>
